<svg height="512" viewBox="0 0 60 60" width="512" xmlns="http://www.w3.org/2000/svg"><g id="001---System-Prefs" fill="none"><g id="Icons" transform="translate(1 1)"><path id="Shape" d="m36.94 44.03 4.39 4.38c-2.0577471 1.3185031-4.3157332 2.2945097-6.686 2.89-.736243.1745471-1.3109486.7496397-1.485 1.486l-.989 4.434c-.1023958.4540653-.5045393.7774384-.97.78h-4.4c-.4665848-.0011667-.8703525-.3248448-.973-.78l-.983-4.42c-.1525081-.7213502-.6982529-1.2953298-1.411-1.484-2.2142223-.5516925-4.3338448-1.4303467-6.289-2.607-.6295913-.3679496-1.4129516-.3489848-2.024.049l-3.82 2.442c-.3957411.2528724-.914129.1962908-1.246-.136l-3.114-3.114c-.33567446-.3314816-.39402539-.852472-.14-1.25l2.437-3.824c.39798482-.6110484.41694957-1.3944087.049-2.024-1.17665333-1.9551552-2.0553075-4.0747777-2.607-6.289-.18915139-.7098307-.76062027-1.2534796-1.479-1.407l-4.422-.987c-.4543692-.1007683-.77779133-.503591-.778-.969v-4.4c.0001044-.4651087.32302821-.8678283.777-.969l4.423-.987c.72135023-.1525081 1.29532984-.6982529 1.484-1.411.5516925-2.2142223 1.43034667-4.3338448 2.607-6.289.36794957-.6295913.34898482-1.4129516-.049-2.024l-2.442-3.83c-.24987725-.392459-.19376379-.9057933.135-1.235l3.12-3.12c.3292067-.32876379.842541-.38487725 1.235-.135l3.83 2.441c.6110484.39798482 1.3944087.41694957 2.024.049 1.9551552-1.17665333 4.0747777-2.0553075 6.289-2.607.7124734-.18850714 1.2581555-.76203412 1.411-1.483l.986-4.42c.1023958-.45406529.5045393-.7774384.97-.78h4.4c.4651087.0001044.8678283.32302821.969.777l.987 4.423c.1525081.72135023.6982529 1.29532984 1.411 1.484 2.2142223.5516925 4.3338448 1.43034667 6.289 2.607.6295913.36794957 1.4129516.34898482 2.024-.049l3.82-2.442c.3966343-.25344648.9163216-.19598107 1.248.138l3.11 3.11c.337371.3312805.3966092.853578.142 1.252l-2.44 3.82c-.3981729.6101654-.4175283 1.3929003-.05 2.022 1.1770556 1.955544 2.0563641 4.0754559 2.609 6.29.1874664.7121536.7605025 1.257718 1.481 1.41l4.42.988c.4540653.1023958.7774384.5045393.78.97v4.4c-.0023474.4648638-.324729.8668049-.778.97l-4.44.99c-.7353129.17255-1.30945.7466871-1.482 1.482-.6001781 2.3772211-1.5793886 4.6422363-2.9 6.708l-4.38-4.38z" fill="#02a9f4"/><path id="Shape" d="m58 26.8v4.4c.0037009.4669847-.3213458.8722485-.778.97l-4.44.99c-.7359096.1714769-1.3105231.7460904-1.482 1.482-.6004756 2.37712-1.5796661 4.6420889-2.9 6.708l-1.91-1.91c.7800154-1.5276859 1.3871059-3.1376496 1.81-4.8.1703117-.735435.744565-1.3096883 1.48-1.48l4.44-.99c.4572345-.09728.7831152-.5025419.78-.97v-4.4c-.0003239-.4662527-.3246809-.8696197-.78-.97l-4.42-.99c-.7230883-.1469446-1.2982198-.6948739-1.48-1.41-.5562271-2.2135158-1.4356781-4.3329592-2.61-6.29-.3695444-.6278682-.3501554-1.4111838.05-2.02l2.44-3.82c.2493774-.3985974.1913782-.9164472-.14-1.25l-2.51-2.51 1.15-.74c.3974402-.24996449.9147744-.19275927 1.248.138l3.11 3.11c.3341209.3328582.3930883.8527683.142 1.252l-2.44 3.82c-.4002758.6095099-.4196611 1.3934511-.05 2.022 1.1739994 1.9570854 2.0531141 4.0765302 2.609 6.29.1825871.7150245.7578746 1.2627324 1.481 1.41l4.42.988c.4540653.1023958.7774384.5045393.78.97z" fill="#0377bc"/><path id="Shape" d="m44.02 36.97h-.01c-1.32-1.33-2.78-2.79-4.55-4.56 1.2258644-3.7790337.31872-7.9254338-2.3731694-10.8473461-2.6918894-2.9219122-6.7501749-4.1652398-10.6168306-3.2526539-.1824929.0362516-.3297635.1708362-.382263.3493344-.0524995.1784983-.0015438.3713847.132263.5006656l5.98 5.98c.1209573.119953.1702801.2944799.13.46l-1.15 5.22c-.0406631.1905112-.1894888.3393369-.38.38l-5.21 1.14c-.1655201.0402801-.340047-.0090427-.46-.13l-5.99-5.98c-.1292809-.1338068-.3221673-.1847625-.5006656-.132263-.1784982.0524995-.3130828.1997701-.3493344.382263-.9107049 3.8643456.3316311 7.9195835 3.2506209 10.6106891s7.0616294 3.6004406 10.8393791 2.3793109l4.56 4.56c-7.4405191 3.9257573-16.6334131 1.8190314-21.6218592-4.9550589-4.9884462-6.7740904-4.2720266-16.1780436 1.6850322-22.1182746 5.9570589-5.9402311 15.3630012-6.6300454 22.1229529-1.6224563 6.7599516 5.007589 8.8406638 14.2064059 4.8938741 21.6357898z" fill="#3f51b5"/><path id="Shape" d="m54.49 47.44c-6.368-6.352-8.736-8.736-15.03-15.03 1.2258644-3.7790337.31872-7.9254338-2.3731694-10.8473461-2.6918894-2.9219122-6.7501749-4.1652398-10.6168306-3.2526539-.1812176.0360308-.3277944.1690615-.3811742.3459474s-.0048607.3687918.1261742.4990526l5.985 5.981c.1210393.1207842.1719602.2950471.135.462l-1.152 5.22c-.0422001.1900335-.1908563.3382995-.381.38l-5.211 1.143c-.1661446.0364894-.3394434-.0139933-.46-.134l-5.99-5.981c-.1305394-.1310704-.3227791-.1793569-.499761-.1255293-.1769818.0538276-.3097826.2009726-.345239.3825293-.9137276 3.8634713.326859 7.9194337 3.2454724 10.6107168s7.0616567 3.5996209 10.8385276 2.3762832c11.329 11.33 1.541 1.53 15.05 15.04 1.9738312 1.8141414 5.0271896 1.7487287 6.9215161-.148281s1.9554173-4.9504576.1384839-6.921719zm-3.49 5.56c-1.1045695 0-2-.8954305-2-2s.8954305-2 2-2 2 .8954305 2 2c-.0032948 1.1032019-.8967981 1.9967052-2 2z" fill="#9e9e9e"/><path id="Shape" d="m50.07 55.89c.9930426-.7666569 1.657864-1.8818411 1.86-3.12.8106912-.4263756 1.2281171-1.3489848 1.0131914-2.239391-.2149256-.8904063-1.0072634-1.5210036-1.9231914-1.530609-.259-.389.94.85-15.52-15.61 1.0257046-3.1611264.5662857-6.6165898-1.2497569-9.3998935-1.8160425-2.7833036-4.7937458-4.5956436-8.1002431-4.9301065-.08816-.1374044-.102582-.3095412-.0385144-.4596995.0640675-.1501583.198315-.2588628.3585144-.2903005 3.8666557-.9125859 7.9249412.3307417 10.6168306 3.2526539 2.6918894 2.9219123 3.5990338 7.0683124 2.3731694 10.8473461 6.2 6.2 9.657 9.671 15.03 15.03 1.5390892 1.5461811 1.8980157 3.9117546.8868397 5.8448854-1.0111761 1.9331307-3.1589889 2.9874867-5.3068397 2.6051146z" fill="#707070"/></g><g id="Layer_2" fill="#000"><path id="Shape" d="m58.438 25.854-4.42-.986c-.3514045-.0706075-.6336852-.3320357-.731-.677-.5757809-2.310582-1.4925055-4.5225171-2.72-6.563-.1715363-.3043347-.1576231-.6792176.036-.97l2.437-3.825c.5087143-.7902579.3948567-1.8287397-.273-2.49l-3.11-3.11c-.6612603-.66785665-1.6997421-.7817143-2.49-.273l-3.825 2.44c-.2907824.19362315-.6656653.20753633-.97.036-2.0404829-1.22749447-4.252418-2.14421907-6.563-2.72-.3452397-.0974786-.6067297-.38021229-.677-.732l-.986-4.422c-.1990599-.9144807-1.0101113-1.56548907-1.946-1.562h-4.4c-.936745-.00414343-1.7490173.64684143-1.949 1.562l-.986 4.42c-.0706075.35140449-.3320357.63368521-.677.731-2.310582.57578093-4.5225171 1.49250553-6.563 2.72-.304221.17200412-.6793656.15808122-.97-.036l-3.831-2.44c-.7863785-.50754796-1.8208528-.39446102-2.479.271l-3.12 3.12c-.66525319.6586531-.77830429 1.6932166-.271 2.48l2.44 3.83c.19362315.2907824.20753633.6656653.036.97-1.22749447 2.0404829-2.14421907 4.252418-2.72 6.563-.0974786.3452397-.38021229.6067297-.732.677l-4.422.986c-.91209483.2014976-1.56010126 1.0119221-1.556 1.946v4.4c-.00379433.9349825.64571223 1.74572 1.559 1.946l4.423.986c.35140449.0706075.63368521.3320357.731.677.57578093 2.310582 1.49250553 4.5225171 2.72 6.563.17153633.3043347.15762315.6792176-.036.97l-2.437 3.825c-.5087143.7902579-.39485665 1.8287397.273 2.49l3.11 3.11c.661613.6671258 1.6995562.7809244 2.49.273l3.825-2.44c.2907824-.1936231.6656653-.2075363.97-.036 2.0404829 1.2274945 4.252418 2.1442191 6.563 2.72.3452397.0974786.6067297.3802123.677.732l.986 4.419c.1985265.9152479 1.0094715 1.5674211 1.946 1.565h4.4c.936745.0041434 1.7490173-.6468414 1.949-1.562l.986-4.438c.278-1.247 2.068-.394 7.031-3.338l5.553 5.549c1.5007334 1.585867 3.7444866 2.2313203 5.8584949 1.6852946 2.1140082-.5460258 3.7645335-2.1973296 4.3095623-4.3115951.5450287-2.1142656-.1014827-4.3577141-1.6880572-5.8576995l-5.546-5.544c2.979-5.032 2.1-6.771 3.349-7.05l4.439-.989c.9125525-.2001223 1.5618502-1.0097662 1.559-1.944v-4.4c.0027262-.9356218-.6479449-1.746253-1.562-1.946zm-3.652 23.29c1.0595075.9995402 1.4919264 2.4960042 1.1288564 3.906613-.3630699 1.4106087-1.4642291 2.5123524-2.874645 2.8761706-1.410416.3638183-2.9071092-.0678065-3.9072114-1.1267836-15.626-15.617-15.211-15.556-16.061-15.281-3.2804883 1.0654839-6.878563.362992-9.5173612-1.8581796-2.6387982-2.2211715-3.9448376-5.6466493-3.4546388-9.0608204l5.516 5.507c.2411283.2407088.5882206.3420854.921.269l5.79-1.27c.3805638-.0835567.6779436-.3805463.762-.761l1.281-5.8c.0731931-.3332699-.0285951-.6808575-.27-.922l-5.51-5.51c3.4158394-.4851556 6.8405038.8247529 9.0606576 3.4656338 2.2201539 2.6408809 2.9221751 6.2396797 1.8573424 9.5213662-.264.821-.729.043 15.278 16.044zm-28.486-30.544c-.3311421.1070869-.5827912.378638-.6644125.7169584-.0816213.3383203.0185261.6947439.2644125.9410416l6.4 6.392-1.024 4.64-4.636 1.016-6.4-6.393c-.2462977-.2458864-.6027213-.3460338-.9410416-.2644125-.3383204.0816213-.6098715.3332704-.7169584.6644125-1.3569927 4.1794187-.318015 8.7663262 2.7074826 11.9530696 3.0254976 3.1867435 7.5523293 4.4622787 11.7965174 3.3239304l3.144 3.142c-7.0536273 2.9829256-15.2319142.5492234-19.5070096-5.804914-4.2750955-6.3541374-3.44804-14.8466789 1.9727087-20.256576 5.4207488-5.409897 13.9149306-6.2199327 20.2604884-1.9321128 6.3455578 4.2878198 8.7628668 12.4709671 5.7658125 19.5186028l-3.14-3.139c1.1350004-4.2456892-.1416753-8.7721821-3.3278788-11.7990963-3.1862036-3.0269141-7.7721687-4.0699685-11.9541212-2.7189037zm27.267 14.583c-1.1067285.2535869-1.9739908 1.1127114-2.238 2.217-.4709894 1.8645373-1.1868822 3.6584725-2.129 5.335l-2.968-2.967c3.7888918-7.90525 1.3317949-17.3904145-5.8186636-22.4618661s-16.9145609-4.2541538-23.1224202 1.9354472c-6.2078594 6.189601-7.0539139 15.9512537-2.003546 23.1166191 5.0503679 7.1653655 14.5282539 9.6503903 22.4446298 5.8847998 1.87 1.865 1.186 1.183 2.976 2.971-1.6681686.9363141-3.4530295 1.6475011-5.308 2.115-1.1037513.2639659-1.962456 1.1308081-2.216 2.237l-.984 4.434h-4.391l-.986-4.419c-.2381218-1.0891351-1.0666923-1.9528571-2.145-2.236-2.1179142-.5274473-4.1452469-1.3680405-6.015-2.494-.9558622-.5594665-2.1448389-.5351228-3.077.063l-3.826 2.437-3.11-3.111 2.437-3.825c.5985818-.9320214.6229308-2.1212587.063-3.077-1.1259595-1.8697531-1.96655266-3.8970858-2.494-6.015-.28428488-1.0783485-1.14923595-1.9062137-2.239-2.143l-4.417-.98v-4.393l4.422-.987c1.08913511-.2381218 1.95285713-1.0666923 2.236-2.145.52744734-2.1179142 1.3680405-4.1452469 2.494-6.015.5599308-.9557413.5355818-2.1449786-.063-3.077l-2.447-3.821 3.11-3.119 3.831 2.441c.9318813.5990415 2.1213798.6233959 3.077.063 1.8697531-1.1259595 3.8970858-1.96655266 6.015-2.494 1.0783077-.28314287 1.9068782-1.14686489 2.145-2.236l.98-4.417h4.39l.987 4.422c.2381218 1.08913511 1.0666923 1.95285713 2.145 2.236 2.1179142.52744734 4.1452469 1.3680405 6.015 2.494.9556202.5603959 2.1451187.5360415 3.077-.063l3.826-2.437 3.11 3.111-2.437 3.825c-.5985818.9320214-.6229308 2.1212587-.063 3.077 1.1259595 1.8697531 1.9665527 3.8970858 2.494 6.015.2831429 1.0783077 1.1468649 1.9068782 2.236 2.145l4.42.975.005 4.39z"/><path id="Shape" d="m31 7h-2c-.5522847 0-1 .44771525-1 1s.4477153 1 1 1h2c.5522847 0 1-.44771525 1-1s-.4477153-1-1-1z"/><path id="Shape" d="m29 53h2c.5522847 0 1-.4477153 1-1s-.4477153-1-1-1h-2c-.5522847 0-1 .4477153-1 1s.4477153 1 1 1z"/><path id="Shape" d="m14.444 13.029-1.415 1.415c-.3789722.3923789-.3735524 1.0160848.0121814 1.4018186s1.0094397.3911536 1.4018186.0121814l1.415-1.415c.3789722-.3923789.3735524-1.0160848-.0121814-1.4018186s-1.0094397-.3911536-1.4018186-.0121814z"/><path id="Shape" d="m8 28c-.55228475 0-1 .4477153-1 1v2c0 .5522847.44771525 1 1 1s1-.4477153 1-1v-2c0-.5522847-.44771525-1-1-1z"/><path id="Shape" d="m52 28c-.5522847 0-1 .4477153-1 1v2c0 .5522847.4477153 1 1 1s1-.4477153 1-1v-2c0-.5522847-.4477153-1-1-1z"/><path id="Shape" d="m14.444 46.971c.3923789.3789722 1.0160848.3735524 1.4018186-.0121814s.3911536-1.0094397.0121814-1.4018186l-1.415-1.415c-.3923789-.3789722-1.0160848-.3735524-1.4018186.0121814s-.3911536 1.0094397-.0121814 1.4018186z"/><path id="Shape" d="m45.556 13.029c-.3923789-.3789722-1.0160848-.3735524-1.4018186.0121814s-.3911536 1.0094397-.0121814 1.4018186c1.538 1.538 1.595 1.708 2.122 1.708.4043959-.0000863.7689341-.2437275.923678-.6173454.1547439-.373618.0692299-.8036603-.216678-1.0896546z"/><path id="Shape" d="m52 55c1.6568542 0 3-1.3431458 3-3s-1.3431458-3-3-3-3 1.3431458-3 3 1.3431458 3 3 3zm0-4c.5522847 0 1 .4477153 1 1s-.4477153 1-1 1-1-.4477153-1-1 .4477153-1 1-1z"/><path id="Shape" d="m36.293 36.293c-.3903819.3904999-.3903819 1.0235001 0 1.414l11 11c.3923789.3789722 1.0160848.3735524 1.4018186-.0121814s.3911536-1.0094397.0121814-1.4018186l-11-11c-.3904999-.3903819-1.0235001-.3903819-1.414 0z"/></g></g></svg>