<svg id="Layer_35" enable-background="new 0 0 64 64" height="512" viewBox="0 0 64 64" width="512" xmlns="http://www.w3.org/2000/svg" xmlns:xlink="http://www.w3.org/1999/xlink"><linearGradient id="SVGID_1_" gradientUnits="userSpaceOnUse" x1="32" x2="32" y1="63" y2="1"><stop offset="0" stop-color="#9f2fff"/><stop offset="1" stop-color="#0bb1d3"/></linearGradient><path d="m4.35 37h.394c1.122 0 2.164-.558 2.786-1.491l6.193-9.29c.315-.474.764-.829 1.277-1.03v8.811 3.796 12.204h-7c-2.206 0-4 1.794-4 4s1.794 4 4 4h11c2.206 0 4-1.794 4-4v-8.99l5.142.735c.489.069.858.495.858.989v12.266c0 2.206 1.794 4 4 4s4-1.794 4-4v-15.315c0-3.218-2.181-6.01-5.303-6.791l-2.697-.675v-12.427c3.113-.838 5.825-2.85 7.524-5.611l4.98-8.094c.325-.525.496-1.13.496-1.749 0-1.84-1.497-3.338-3.338-3.338h-.411c-1.118 0-2.157.556-2.777 1.486l-4.931 7.396c-.785 1.177-1.891 2.062-3.158 2.583 1.008-1.212 1.615-2.768 1.615-4.465 0-3.86-3.141-7-7-7s-7 3.14-7 7c0 2.014.86 3.826 2.225 5.104-4.586.531-8.76 3.177-11.161 7.178l-4.586 7.644c-.313.52-.478 1.116-.478 1.725 0 1.847 1.503 3.349 3.35 3.349zm14.65 19h-11c-1.103 0-2-.897-2-2s.897-2 2-2h9v-9.329c1.047 1.076 2.433 1.827 4 2.053v9.276c0 1.103-.897 2-2 2zm3.972-28.386-.972.972-.972-.972.575-8.614h.794zm-5.972-15.614c0-2.757 2.243-5 5-5s5 2.243 5 5-2.243 5-5 5-5-2.243-5-5zm-13.808 20.957 4.587-7.645c2.336-3.894 6.608-6.312 11.148-6.312h.671l-.626 9.386 3.028 3.028 3.028-3.028-.626-9.386h.317c3.017 0 5.815-1.498 7.488-4.008l4.931-7.396c.249-.373.665-.596 1.113-.596h.411c.737 0 1.338.601 1.338 1.338 0 .248-.068.49-.198.701l-4.98 8.093c-1.554 2.524-4.112 4.306-7.018 4.887l-.804.161v15.601l4.213 1.053c2.229.558 3.787 2.552 3.787 4.851v15.315c0 1.103-.897 2-2 2s-2-.897-2-2v-12.266c0-1.483-1.107-2.76-2.575-2.969l-7.132-1.019c-2.447-.35-4.293-2.477-4.293-4.95v-3.796-11h-1c-1.587 0-3.061.789-3.941 2.109l-6.193 9.29c-.252.376-.671.601-1.123.601h-.393c-.745 0-1.35-.605-1.35-1.349 0-.245.066-.485.192-.694zm53.858-31.957c-1.516 0-2.946.563-4.05 1.591-1.104-1.028-2.534-1.591-4.05-1.591-3.281 0-5.95 2.669-5.95 5.95 0 1.589.619 3.083 1.743 4.207l8.257 8.257 8.257-8.257c1.124-1.124 1.743-2.618 1.743-4.207 0-3.281-2.669-5.95-5.95-5.95zm2.793 8.743-6.843 6.843-6.843-6.844c-.746-.745-1.157-1.737-1.157-2.792 0-2.178 1.772-3.95 3.95-3.95 1.055 0 2.047.411 2.793 1.157l1.257 1.258 1.257-1.258c.746-.746 1.738-1.157 2.793-1.157 2.178 0 3.95 1.772 3.95 3.95 0 1.055-.411 2.047-1.157 2.793zm-14.248 9.257h-.185c-.883 0-1.727.258-2.415.713-.71-.464-1.538-.713-2.405-.713h-.185c-2.428 0-4.405 1.976-4.405 4.405 0 1.311.578 2.544 1.585 3.384l5.415 4.513 5.415-4.513c1.007-.839 1.585-2.073 1.585-3.384 0-2.429-1.977-4.405-4.405-4.405zm1.539 6.253-4.134 3.445-4.134-3.445c-.551-.459-.866-1.132-.866-1.848 0-1.326 1.079-2.405 2.405-2.405h.185c.633 0 1.252.257 1.767.766l.708.585.646-.646c.447-.448 1.066-.705 1.699-.705h.185c1.326 0 2.405 1.079 2.405 2.405 0 .716-.315 1.389-.866 1.848zm11.461 4.747h-.185c-.883 0-1.727.258-2.415.713-.71-.464-1.538-.713-2.405-.713h-.185c-2.428 0-4.405 1.976-4.405 4.405 0 1.311.578 2.544 1.585 3.384l5.415 4.513 5.415-4.513c1.007-.839 1.585-2.073 1.585-3.384 0-2.429-1.977-4.405-4.405-4.405zm1.539 6.253-4.134 3.445-4.134-3.445c-.551-.459-.866-1.132-.866-1.848 0-1.326 1.079-2.405 2.405-2.405h.185c.633 0 1.252.257 1.767.766l.708.585.646-.646c.447-.448 1.066-.705 1.699-.705h.185c1.326 0 2.405 1.079 2.405 2.405 0 .716-.315 1.389-.866 1.848zm-14.139 7.46c-.71-.464-1.538-.713-2.405-.713h-.185c-2.428 0-4.405 1.976-4.405 4.405 0 1.311.578 2.544 1.585 3.384l5.415 4.513 5.415-4.513c1.007-.839 1.585-2.073 1.585-3.384 0-2.429-1.977-4.405-4.405-4.405h-.185c-.883 0-1.726.258-2.415.713zm5.005 3.692c0 .716-.315 1.389-.866 1.848l-4.134 3.445-4.134-3.445c-.551-.459-.866-1.132-.866-1.848 0-1.326 1.079-2.405 2.405-2.405h.185c.633 0 1.252.257 1.767.766l.708.585.646-.646c.447-.448 1.066-.705 1.699-.705h.185c1.326 0 2.405 1.079 2.405 2.405z" fill="url(#SVGID_1_)"/></svg>